<?xml version="1.0" standalone="no"?>
<!DOCTYPE svg PUBLIC "-//W3C//DTD SVG 20010904//EN"
 "http://www.w3.org/TR/2001/REC-SVG-20010904/DTD/svg10.dtd">
<svg version="1.0" xmlns="http://www.w3.org/2000/svg"
 width="512.000000pt" height="512.000000pt" viewBox="0 0 512.000000 512.000000"
 preserveAspectRatio="xMidYMid meet">
<metadata>
Created by potrace 1.11, written by Peter Selinger 2001-2013
</metadata>
<g transform="translate(0.000000,512.000000) scale(0.100000,-0.100000)"
fill="#000000" stroke="none">
<path d="M3156 5081 c-4 -5 -43 -306 -88 -670 -45 -363 -85 -666 -89 -672 -5
-8 -127 50 -392 185 -213 108 -390 196 -395 196 -10 0 -28 -58 -107 -350 -32
-118 -61 -218 -64 -222 -3 -3 -175 -14 -381 -23 -206 -9 -376 -18 -378 -20 -2
-2 -85 -277 -183 -611 -154 -524 -177 -610 -165 -622 12 -12 64 -12 377 2 218
9 367 12 373 6 8 -8 -49 -245 -63 -262 -4 -4 -59 20 -124 52 -71 36 -124 57
-131 53 -7 -5 -191 -151 -409 -326 -326 -262 -394 -321 -390 -338 4 -15 136
-85 505 -270 402 -201 502 -248 517 -240 10 6 105 80 211 166 106 85 199 155
207 155 19 0 253 -118 253 -128 0 -4 -25 -38 -56 -75 -44 -53 -55 -73 -50 -91
7 -27 529 -871 557 -901 14 -14 23 -17 34 -10 26 17 635 769 641 791 4 15 -38
91 -155 280 -89 142 -160 262 -159 266 2 5 68 92 148 193 106 135 151 185 166
185 12 0 251 -108 533 -240 281 -132 520 -240 531 -240 14 0 21 9 25 33 18
111 135 1241 128 1247 -4 4 -98 49 -208 100 -110 51 -206 98 -213 105 -10 9 3
31 66 111 124 158 156 120 -288 344 -209 105 -380 196 -380 202 0 5 205 217
456 470 250 253 459 469 464 481 10 26 -29 67 -353 379 l-198 191 -377 64
c-427 71 -389 66 -396 54z m440 -171 l282 -46 231 -224 231 -224 -352 -355
c-193 -196 -398 -403 -455 -461 l-103 -105 -170 85 c-93 46 -170 91 -170 98 0
15 147 1197 156 1253 5 33 7 35 37 31 18 -3 159 -26 313 -52z m-1138 -1477
c-3 -10 -69 -237 -148 -505 l-144 -488 -40 -1 c-23 0 -273 -10 -556 -23 -283
-13 -517 -22 -519 -20 -5 4 289 997 297 1005 7 7 826 45 1011 48 94 1 103 -1
99 -16z m1504 -678 c276 -129 503 -237 505 -239 4 -3 -107 -1038 -112 -1044
-2 -2 -231 104 -510 235 l-507 237 5 31 c2 16 29 252 58 523 29 270 55 492 57
492 2 0 229 -106 504 -235z m-2192 -955 c220 -110 400 -202 400 -205 0 -6
-607 -494 -623 -501 -8 -3 -193 86 -412 197 -383 194 -396 202 -378 219 22 22
605 490 610 490 2 0 183 -90 403 -200z m1242 -550 c118 -190 217 -350 221
-356 4 -7 -439 -568 -508 -642 -2 -3 -209 323 -401 635 l-63 102 257 315 c194
238 260 312 268 303 6 -7 108 -167 226 -357z"/>
</g>
</svg>
